<svg width="88" height="82" viewBox="0 0 88 82" fill="none" xmlns="http://www.w3.org/2000/svg">
<path d="M78.9169 42.3972L44 80L9.3995 42.7379C6.50738 39.6233 4.39142 35.87 3.22377 31.7832L2.64319 29.7512C1.56851 25.9898 1.55031 22.0051 2.5906 18.2341C4.13013 12.6533 7.87477 7.93941 12.9627 5.1774L14.1746 4.51949C19.4913 1.63331 25.7581 1.05101 31.5155 2.90824L32.5744 3.24981C36.1095 4.39016 39.2196 6.568 41.5 9.5L44 13.5L47 9.5C49.2878 6.55851 52.354 4.31332 55.8485 3.01907C61.0464 1.09392 66.8135 1.40673 71.7712 3.88562L75.1988 5.5994C80.1825 8.09123 83.9337 12.5086 85.5852 17.8301C86.8314 21.8456 86.8097 26.1476 85.5231 30.1503L84.8362 32.2873C83.6268 36.0499 81.6062 39.5011 78.9169 42.3972Z" stroke="black" stroke-width="5"/>
</svg>
