<svg width="58" height="54" viewBox="0 0 58 54" fill="none" xmlns="http://www.w3.org/2000/svg">
<path d="M16.2228 45.2622L16.8494 44.4829L16.4097 44.1293L15.8797 44.3229L16.2228 45.2622ZM46.9541 44.114L47.6361 44.8453L47.6361 44.8453L46.9541 44.114ZM48.1139 10.9002L47.3826 11.5822L47.3826 11.5822L48.1139 10.9002ZM14.9002 9.74033L14.2182 9.00897L14.9002 9.74033ZM10.3089 38.2145L10.652 39.1538L11.7455 38.7543L11.1857 37.7336L10.3089 38.2145ZM9.35896 38.5615L8.47917 39.0368L8.89009 39.7974L9.70208 39.5008L9.35896 38.5615ZM14.2182 9.00897L14.9002 9.74033L14.2182 9.00897ZM48.8453 10.2182L48.1139 10.9002L48.8453 10.2182ZM47.6361 44.8453L48.3181 45.5767L47.6361 44.8453ZM15.1334 45.6602L14.7903 44.7209L13.1723 45.3119L14.4879 46.4239L15.1334 45.6602ZM15.5962 46.0416C24.9359 53.5511 38.6149 53.2577 47.6361 44.8453L46.2721 43.3826C37.9886 51.1071 25.4253 51.3783 16.8494 44.4829L15.5962 46.0416ZM47.6361 44.8453C57.532 35.6172 58.0734 20.1141 48.8453 10.2182L47.3826 11.5822C55.8574 20.6703 55.3602 34.9078 46.2721 43.3826L47.6361 44.8453ZM48.8453 10.2182C39.6172 0.322249 24.1141 -0.21913 14.2182 9.00897L15.5822 10.4717C24.6703 1.99689 38.9078 2.49408 47.3826 11.5822L48.8453 10.2182ZM14.2182 9.00897C5.84923 16.8131 4.1717 29.1029 9.43209 38.6953L11.1857 37.7336C6.35458 28.924 7.89831 17.637 15.5822 10.4717L14.2182 9.00897ZM9.70208 39.5008L10.652 39.1538L9.96578 37.2752L9.01585 37.6222L9.70208 39.5008ZM13.5362 8.27762C4.86596 16.3627 3.09596 29.0734 8.47917 39.0368L10.2388 38.0861C5.27752 28.9037 6.91192 17.1895 14.9002 9.74033L13.5362 8.27762ZM49.5766 9.53618C39.9719 -0.763665 23.836 -1.32714 13.5362 8.27762L14.9002 9.74033C24.3922 0.888881 39.2625 1.40816 48.1139 10.9002L49.5766 9.53618ZM48.3181 45.5767C58.6179 35.9719 59.1814 19.836 49.5766 9.53618L48.1139 10.9002C56.9654 20.3922 56.4461 35.2625 46.9541 44.114L48.3181 45.5767ZM14.4879 46.4239C24.2151 54.6457 38.7722 54.4783 48.3181 45.5767L46.9541 44.114C38.158 52.3165 24.7417 52.4721 15.7789 44.8965L14.4879 46.4239ZM15.8797 44.3229L14.7903 44.7209L15.4765 46.5995L16.5659 46.2015L15.8797 44.3229Z" fill="black"/>
<path d="M28.5 12.5C28.5 12.2239 28.7239 12 29 12V12C29.2761 12 29.5 12.2239 29.5 12.5V28H28.5V12.5Z" stroke="black" stroke-width="2"/>
<path d="M28.8616 29.3692C28.3858 29.0889 28.2272 28.4759 28.5075 28V28L41.8629 35.8666C42.1008 36.0068 42.1801 36.3133 42.04 36.5512V36.5512C41.8998 36.7891 41.5933 36.8684 41.3554 36.7283L28.8616 29.3692Z" stroke="black" stroke-width="2"/>
<path d="M13.2006 40.7586C13.1447 41.828 12.0186 42.496 11.0533 42.0325L5.04784 39.1485C3.96809 38.6299 3.9017 37.1174 4.93188 36.5062L11.2852 32.7372C12.3154 32.1261 13.611 32.9095 13.5485 34.1056L13.2006 40.7586Z" fill="black"/>
</svg>
